<svg xmlns="http://www.w3.org/2000/svg" viewBox="0 0 24 24" width="16" height="16" color="#cccccc" fill="none">
    <path d="M2 19V7.54902C2 6.10516 2 5.38322 2.24332 4.81647C2.5467 4.10985 3.10985 3.5467 3.81647 3.24332C4.38322 3 5.09805 3 6.54902 3H7.04311C7.64819 3 8.22075 3.27394 8.60041 3.74509L10.4175 6M10.4175 6H16C17.4001 6 18.1002 6 18.635 6.27248C19.1054 6.51217 19.4878 6.89462 19.7275 7.36502C20 7.8998 20 8.59987 20 10V11M10.4175 6H7" stroke="currentColor" stroke-width="1.5" stroke-linecap="round" stroke-linejoin="round" />
    <path d="M3.15802 15.5144L3.45643 14.7717C4.19029 12.9449 4.55723 12.0316 5.3224 11.5158C6.08757 11 7.07557 11 9.05157 11H17.1119C19.8004 11 21.1446 11 21.7422 11.8787C22.3397 12.7575 21.8405 14.0002 20.842 16.4856L20.5436 17.2283C19.8097 19.0551 19.4428 19.9684 18.6776 20.4842C17.9124 21 16.9244 21 14.9484 21H6.88812C4.19961 21 2.85535 21 2.25782 20.1213C1.66029 19.2425 2.15953 17.9998 3.15802 15.5144Z" stroke="currentColor" stroke-width="1.5" stroke-linejoin="round" />
</svg>