<svg xmlns="http://www.w3.org/2000/svg" viewBox="0 0 24 24" width="16" height="16" color="#cccccc" fill="none">
    <path d="M11 2C7.22876 2 5.34315 2 4.17157 3.12874C3 4.25748 3 6.07416 3 9.70753V17.9808C3 20.2867 3 21.4396 3.77285 21.8523C5.26947 22.6514 8.0768 19.9852 9.41 19.1824C10.1832 18.7168 10.5698 18.484 11 18.484C11.4302 18.484 11.8168 18.7168 12.59 19.1824C13.9232 19.9852 16.7305 22.6514 18.2272 21.8523C19 21.4396 19 20.2867 19 17.9808V11.5" stroke="currentColor" stroke-width="1.5" stroke-linecap="round" stroke-linejoin="round" />
    <path d="M3.5 7H11" stroke="currentColor" stroke-width="1.5" stroke-linecap="round" />
    <path d="M21 2L14 8.99954M21 9L14 2.00046" stroke="currentColor" stroke-width="1.5" stroke-linecap="round" stroke-linejoin="round" />
</svg>